<?xml version="1.0" encoding="UTF-8"?>
<!DOCTYPE svg PUBLIC "-//W3C//DTD SVG 1.1//EN" "http://www.w3.org/Graphics/SVG/1.1/DTD/svg11.dtd">
<!-- Creator: CorelDRAW 2019 (64 Bit) -->
<svg xmlns="http://www.w3.org/2000/svg" xml:space="preserve" width="300px" height="72px" version="1.1" style="shape-rendering:geometricPrecision; text-rendering:geometricPrecision; image-rendering:optimizeQuality; fill-rule:evenodd; clip-rule:evenodd"
viewBox="0 0 101.573 24.417"
 xmlns:xlink="http://www.w3.org/1999/xlink"
 xmlns:xodm="http://www.corel.com/coreldraw/odm/2003">
 <defs>
  <style type="text/css">
   <![CDATA[
    .fil1 {fill:black}
    .fil0 {fill:#D9D9D9}
    .fil2 {fill:#FF0D00}
   ]]>
  </style>
 </defs>
 <g id="Camada_x0020_1">
  <metadata id="CorelCorpID_0Corel-Layer"/>
  <g id="_1411039410160">
   <rect class="fil0" x="9.717" width="18.253" height="24.417"/>
   <g>
    <path class="fil1" d="M2.634 9.522c0,0 -1.801,-1.799 -0.97,-2.765 0.823,-0.967 3.784,0.966 4.144,1.213 0.36,0.24 1.654,1.277 2.734,1.143 1.081,-0.141 1.551,-0.797 0.257,-1.665 -1.3,-0.86 -3.424,-1.799 -5.592,-2.003 -2.161,-0.212 -3.167,0.62 -3.204,1.206 -0.037,0.593 0.213,2.462 4.652,5.644 4.431,3.182 6.481,3.422 7.459,3.669 0.97,0.24 2.917,0.205 2.557,-2.18l-3.811 -3.959c0.476,-0.171 1.105,-0.165 1.496,-0.02 0.169,0.066 0.616,0.168 1.203,0.367 0.644,0.628 1.485,1.335 2.582,2.123 2.529,1.82 4.285,2.677 5.506,3.124l0.072 0.065c0,0 1.8,1.799 0.97,2.766 -0.823,0.967 -3.785,-0.967 -4.145,-1.213 -0.353,-0.24 -1.646,-1.278 -2.727,-1.143 -1.08,0.141 -1.55,0.797 -0.257,1.665 1.301,0.86 3.417,1.799 5.585,2.003 2.161,0.212 3.168,-0.621 3.204,-1.206 0.023,-0.358 -0.06,-1.179 -1.102,-2.473 0.128,0.029 0.243,0.055 0.345,0.081 0.978,0.24 2.925,0.205 2.565,-2.18l-3.817 -3.958c0.475,-0.172 1.104,-0.166 1.495,-0.021 0.169,0.066 0.616,0.168 1.206,0.368 0.645,0.627 1.487,1.334 2.586,2.122 2.538,1.822 4.294,2.68 5.516,3.126l0.069 0.063c0,0 1.801,1.799 0.97,2.766 -0.83,0.967 -3.785,-0.967 -4.145,-1.213 -0.36,-0.24 -1.66,-1.278 -2.741,-1.143 -1.08,0.141 -1.55,0.797 -0.25,1.665 1.294,0.86 3.425,1.799 5.586,2.003 2.16,0.212 3.174,-0.621 3.211,-1.206 0.018,-0.358 -0.067,-1.18 -1.108,-2.474 0.13,0.029 0.247,0.056 0.351,0.082 0.97,0.24 2.917,0.205 2.557,-2.18l-4.034 -4.191 -0.11 0.381c0,0 2.234,1.355 2.88,2.145 0.654,0.797 0.904,1.799 0.721,2.49 -0.177,0.699 -1.477,0.833 -2.124,0.593 -0.169,-0.066 -0.616,-0.168 -1.203,-0.367 -0.644,-0.628 -1.484,-1.336 -2.582,-2.123 -2.534,-1.82 -4.292,-2.677 -5.514,-3.124l-0.071 -0.066c0,0 -1.8,-1.799 -0.97,-2.765 0.823,-0.967 3.777,0.966 4.145,1.213 0.36,0.24 1.653,1.277 2.734,1.143 1.08,-0.141 1.55,-0.797 0.257,-1.665 -1.301,-0.86 -3.425,-1.799 -5.593,-2.003 -2.16,-0.212 -3.167,0.62 -3.204,1.206 -0.022,0.357 0.06,1.179 1.103,2.473 -0.129,-0.029 -0.243,-0.055 -0.346,-0.081 -0.977,-0.24 -2.925,-0.205 -2.565,2.18l3.82 3.961c-0.476,0.172 -1.105,0.164 -1.497,0.018 -0.17,-0.066 -0.617,-0.168 -1.207,-0.368 -0.644,-0.627 -1.486,-1.335 -2.585,-2.122 -2.533,-1.822 -4.287,-2.679 -5.508,-3.126l-0.07 -0.064c0,0 -1.801,-1.799 -0.97,-2.765 0.83,-0.967 3.785,0.966 4.145,1.213 0.36,0.24 1.653,1.277 2.733,1.143 1.081,-0.141 1.551,-0.797 0.25,-1.665 -1.293,-0.86 -3.417,-1.799 -5.578,-2.003 -2.16,-0.212 -3.174,0.62 -3.211,1.206 -0.018,0.358 0.067,1.18 1.108,2.474 -0.13,-0.029 -0.247,-0.056 -0.351,-0.082 -0.97,-0.24 -2.917,-0.205 -2.557,2.18l3.814 3.962c-0.478,0.17 -1.109,0.162 -1.5,0.017 -0.235,-0.092 -1.006,-0.254 -1.947,-0.649 -0.191,-0.085 -0.39,-0.169 -0.595,-0.261 -0.265,-0.148 -0.596,-0.317 -1.022,-0.508 -1.469,-0.663 -3.072,-1.863 -4.086,-2.681l-1.719 -1.581zm7.908 0.461c0.198,0.121 2.25,1.384 2.865,2.136 0.654,0.797 0.904,1.799 0.728,2.49 -0.046,0.173 -0.159,0.31 -0.313,0.417 -0.171,-0.104 -2.25,-1.374 -2.869,-2.138 -0.655,-0.797 -0.904,-1.799 -0.721,-2.491 0.044,-0.17 0.156,-0.307 0.31,-0.414zm5.561 1.325c1.303,0.622 2.681,1.63 3.65,2.399 -1.298,-0.619 -2.678,-1.629 -3.65,-2.399zm9.198 3.718c-0.166,-0.1 -2.249,-1.373 -2.87,-2.138 -0.646,-0.797 -0.904,-1.799 -0.72,-2.491 0.046,-0.171 0.16,-0.309 0.315,-0.415 0.184,0.112 2.25,1.382 2.867,2.137 0.647,0.797 0.904,1.799 0.721,2.49 -0.046,0.173 -0.159,0.311 -0.313,0.417zm2.271 -3.726c1.298,0.619 2.683,1.628 3.656,2.399 -1.303,-0.622 -2.686,-1.631 -3.656,-2.399z"/>
    <path class="fil2" d="M2.634 8.933c0,0 -1.801,-1.8 -0.97,-2.766 0.823,-0.967 3.784,0.966 4.144,1.213 0.36,0.24 1.654,1.277 2.734,1.143 1.081,-0.141 1.551,-0.797 0.257,-1.665 -1.3,-0.86 -3.424,-1.799 -5.592,-2.003 -2.161,-0.212 -3.167,0.621 -3.204,1.206 -0.037,0.593 0.213,2.462 4.652,5.644 4.431,3.182 6.481,3.422 7.459,3.669 0.97,0.24 2.917,0.205 2.557,-2.18l-3.811 -3.959c0.476,-0.171 1.105,-0.165 1.496,-0.02 0.169,0.066 0.616,0.168 1.203,0.367 0.644,0.628 1.485,1.335 2.582,2.123 2.529,1.82 4.285,2.677 5.507,3.124l0.071 0.065c0,0 1.8,1.799 0.97,2.766 -0.823,0.967 -3.785,-0.967 -4.145,-1.214 -0.353,-0.239 -1.646,-1.277 -2.726,-1.142 -1.081,0.141 -1.551,0.797 -0.258,1.665 1.301,0.86 3.417,1.799 5.585,2.003 2.161,0.212 3.168,-0.621 3.204,-1.206 0.023,-0.358 -0.06,-1.18 -1.102,-2.473 0.128,0.029 0.243,0.055 0.345,0.081 0.978,0.24 2.925,0.205 2.565,-2.18l-3.817 -3.959c0.475,-0.171 1.104,-0.165 1.495,-0.02 0.169,0.066 0.616,0.168 1.206,0.368 0.645,0.627 1.487,1.334 2.586,2.122 2.538,1.823 4.294,2.68 5.516,3.126l0.069 0.063c0,0 1.801,1.799 0.97,2.766 -0.83,0.967 -3.785,-0.967 -4.145,-1.214 -0.36,-0.239 -1.66,-1.277 -2.741,-1.142 -1.08,0.141 -1.55,0.797 -0.249,1.665 1.293,0.86 3.424,1.799 5.585,2.003 2.16,0.212 3.174,-0.621 3.211,-1.206 0.018,-0.358 -0.067,-1.18 -1.109,-2.474 0.131,0.029 0.248,0.056 0.352,0.082 0.97,0.24 2.918,0.205 2.557,-2.18l-4.034 -4.191 -0.11 0.381c0,0 2.234,1.355 2.88,2.145 0.654,0.797 0.904,1.799 0.721,2.491 -0.177,0.698 -1.477,0.832 -2.124,0.592 -0.169,-0.066 -0.616,-0.168 -1.203,-0.367 -0.643,-0.628 -1.484,-1.335 -2.582,-2.123 -2.534,-1.82 -4.292,-2.677 -5.514,-3.124l-0.071 -0.065c0,0 -1.8,-1.8 -0.97,-2.766 0.823,-0.967 3.777,0.966 4.145,1.213 0.36,0.24 1.653,1.277 2.734,1.143 1.08,-0.141 1.55,-0.797 0.257,-1.665 -1.301,-0.86 -3.425,-1.799 -5.593,-2.003 -2.16,-0.212 -3.167,0.621 -3.204,1.206 -0.022,0.357 0.06,1.179 1.102,2.473 -0.128,-0.029 -0.242,-0.055 -0.345,-0.081 -0.977,-0.24 -2.925,-0.205 -2.565,2.18l3.82 3.961c-0.476,0.172 -1.105,0.164 -1.497,0.018 -0.17,-0.066 -0.617,-0.168 -1.207,-0.368 -0.644,-0.627 -1.486,-1.335 -2.585,-2.122 -2.533,-1.822 -4.288,-2.679 -5.509,-3.126l-0.069 -0.063c0,0 -1.801,-1.8 -0.97,-2.766 0.83,-0.967 3.785,0.966 4.145,1.213 0.36,0.24 1.653,1.277 2.733,1.143 1.081,-0.141 1.551,-0.797 0.25,-1.665 -1.293,-0.86 -3.417,-1.799 -5.578,-2.003 -2.16,-0.212 -3.174,0.621 -3.211,1.206 -0.018,0.357 0.067,1.18 1.108,2.474 -0.13,-0.03 -0.247,-0.056 -0.351,-0.082 -0.97,-0.24 -2.917,-0.205 -2.557,2.18l3.814 3.962c-0.478,0.171 -1.109,0.162 -1.5,0.017 -0.235,-0.092 -1.006,-0.254 -1.947,-0.649 -0.191,-0.085 -0.39,-0.169 -0.595,-0.261 -0.265,-0.148 -0.596,-0.318 -1.022,-0.508 -1.469,-0.663 -3.071,-1.863 -4.086,-2.681l-1.719 -1.58zm7.908 0.46c0.197,0.121 2.25,1.384 2.865,2.136 0.654,0.797 0.904,1.799 0.728,2.491 -0.046,0.172 -0.159,0.309 -0.313,0.416 -0.17,-0.103 -2.249,-1.374 -2.869,-2.138 -0.655,-0.797 -0.904,-1.799 -0.721,-2.491 0.044,-0.17 0.156,-0.307 0.31,-0.414zm5.561 1.325c1.303,0.622 2.681,1.631 3.65,2.399 -1.298,-0.619 -2.677,-1.628 -3.65,-2.399zm9.198 3.718c-0.164,-0.1 -2.249,-1.372 -2.87,-2.138 -0.646,-0.797 -0.904,-1.799 -0.72,-2.491 0.046,-0.171 0.16,-0.309 0.315,-0.415 0.183,0.112 2.249,1.382 2.867,2.137 0.647,0.797 0.904,1.799 0.721,2.491 -0.046,0.172 -0.159,0.31 -0.313,0.416zm2.272 -3.726c1.297,0.619 2.682,1.628 3.655,2.399 -1.303,-0.622 -2.685,-1.63 -3.655,-2.399z"/>
   </g>
   <g>
    <path class="fil1" d="M50.574 18.036c-0.022,0.672 -0.3,1.173 -0.822,1.514 -0.521,0.341 -1.276,0.511 -2.265,0.511 -1.166,0 -2.043,-0.245 -2.653,-0.724 -0.611,-0.491 -0.911,-1.205 -0.911,-2.132 0,-0.928 0.311,-1.631 0.933,-2.111 0.622,-0.491 1.521,-0.736 2.72,-0.736 0.933,0 1.643,0.16 2.132,0.469 0.5,0.32 0.777,0.789 0.844,1.429l-1.799 0c-0.055,-0.256 -0.189,-0.459 -0.4,-0.587 -0.222,-0.138 -0.521,-0.202 -0.899,-0.202 -0.577,0 -1.01,0.139 -1.288,0.426 -0.289,0.278 -0.422,0.704 -0.422,1.29 0,0.587 0.133,1.024 0.4,1.311 0.266,0.288 0.677,0.437 1.221,0.437 0.433,0 0.766,-0.074 0.988,-0.213 0.222,-0.149 0.367,-0.373 0.411,-0.682l1.81 0c-0.022,0.672 0,0 0,0zm1.033 1.94l0 -5.543 1.799 0 0 5.543 -1.799 0zm4.996 -4.477l0 1.29 1.111 0c0.533,0 0.899,-0.043 1.088,-0.149 0.2,-0.096 0.3,-0.267 0.3,-0.512 0,-0.235 -0.089,-0.395 -0.278,-0.49 -0.178,-0.096 -0.544,-0.139 -1.11,-0.139l-1.111 0zm-1.743 4.477l0 -5.543 3.442 0c0.511,0 0.888,0.011 1.155,0.053 0.266,0.032 0.488,0.096 0.688,0.171 0.256,0.117 0.456,0.266 0.589,0.469 0.144,0.202 0.211,0.426 0.211,0.693 0,0.383 -0.145,0.693 -0.422,0.917 -0.289,0.234 -0.722,0.394 -1.299,0.479 0.433,0.011 0.766,0.053 0.988,0.16 0.211,0.096 0.366,0.256 0.455,0.48 0.034,0.117 0.1,0.416 0.178,0.885 0.078,0.479 0.178,0.884 0.3,1.236l-1.866 0c-0.055,-0.106 -0.1,-0.288 -0.144,-0.575 -0.011,-0.032 -0.011,-0.064 -0.022,-0.075l-0.111 -0.746c-0.056,-0.299 -0.156,-0.491 -0.3,-0.587 -0.144,-0.096 -0.489,-0.138 -1.044,-0.138l-1.055 0 0 2.121 -1.743 0zm13.546 -1.94c-0.022,0.672 -0.299,1.173 -0.821,1.514 -0.522,0.341 -1.288,0.511 -2.265,0.511 -1.166,0 -2.055,-0.245 -2.654,-0.724 -0.611,-0.491 -0.922,-1.205 -0.922,-2.132 0,-0.928 0.311,-1.631 0.933,-2.111 0.633,-0.491 1.532,-0.736 2.72,-0.736 0.944,0 1.655,0.16 2.143,0.469 0.489,0.32 0.778,0.789 0.844,1.429l-1.81 0c-0.044,-0.256 -0.177,-0.459 -0.399,-0.587 -0.211,-0.138 -0.511,-0.202 -0.889,-0.202 -0.577,0 -1.01,0.139 -1.299,0.426 -0.277,0.278 -0.422,0.704 -0.422,1.29 0,0.587 0.145,1.024 0.411,1.311 0.267,0.288 0.677,0.437 1.221,0.437 0.433,0 0.755,-0.074 0.989,-0.213 0.222,-0.149 0.366,-0.373 0.411,-0.682l1.809 0c-0.022,0.672 0,0 0,0zm0.989 -3.603l1.821 0 0 3.123c0,0.448 0.133,0.789 0.377,1.002 0.255,0.224 0.622,0.331 1.144,0.331 0.533,0 0.932,-0.107 1.188,-0.32 0.266,-0.224 0.4,-0.565 0.4,-1.013l0 -3.123 1.821 0 0 3.134c0,0.863 -0.267,1.492 -0.822,1.897 -0.544,0.406 -1.41,0.597 -2.598,0.597 -0.567,0 -1.055,-0.042 -1.488,-0.149 -0.433,-0.096 -0.789,-0.245 -1.055,-0.437 -0.278,-0.202 -0.489,-0.448 -0.611,-0.735 -0.122,-0.288 -0.177,-0.683 -0.177,-1.173l0 -3.134zm8.161 5.543l0 -5.543 1.787 0 0 4.328 3.309 0 0 1.215 -5.096 0zm5.74 -5.543l1.832 0 0 3.123c0,0.448 0.122,0.789 0.378,1.002 0.244,0.224 0.633,0.331 1.143,0.331 0.545,0 0.944,-0.107 1.2,-0.32 0.255,-0.224 0.388,-0.565 0.388,-1.013l0 -3.123 1.832 0 0 3.134c0,0.863 -0.277,1.492 -0.821,1.897 -0.556,0.406 -1.422,0.597 -2.61,0.597 -0.566,0 -1.054,-0.042 -1.499,-0.149 -0.433,-0.096 -0.777,-0.245 -1.043,-0.437 -0.289,-0.202 -0.489,-0.448 -0.611,-0.735 -0.133,-0.288 -0.189,-0.683 -0.189,-1.173l0 -3.134zm8.772 1.162l1.144 -1.077 1.521 0 -1.91 1.077 -0.755 0zm3.498 2.526l1.787 0 0 0.054c0,0.277 0.1,0.479 0.311,0.607 0.2,0.128 0.522,0.192 0.955,0.192 0.378,0 0.666,-0.043 0.855,-0.138 0.189,-0.096 0.278,-0.246 0.278,-0.438 0,-0.277 -0.433,-0.49 -1.311,-0.628 -0.166,-0.022 -0.311,-0.043 -0.399,-0.064 -0.866,-0.139 -1.466,-0.342 -1.821,-0.587 -0.345,-0.245 -0.522,-0.586 -0.522,-1.023 0,-0.565 0.255,-0.992 0.766,-1.29 0.5,-0.298 1.232,-0.458 2.187,-0.458 0.911,0 1.588,0.138 2.032,0.405 0.433,0.266 0.678,0.693 0.711,1.268l-1.699 0 0 -0.01c0,-0.203 -0.089,-0.363 -0.278,-0.469 -0.177,-0.096 -0.455,-0.15 -0.821,-0.15 -0.344,0 -0.622,0.043 -0.811,0.128 -0.188,0.096 -0.277,0.224 -0.277,0.384 0,0.267 0.422,0.469 1.265,0.608 0.145,0.021 0.267,0.042 0.345,0.064 0.022,0 0.044,0 0.077,0 0.922,0.16 1.544,0.351 1.844,0.586 0.166,0.128 0.299,0.288 0.388,0.48 0.1,0.191 0.145,0.405 0.145,0.639 0,0.565 -0.267,1.013 -0.789,1.322 -0.533,0.309 -1.277,0.458 -2.265,0.458 -0.977,0 -1.721,-0.149 -2.21,-0.447 -0.499,-0.309 -0.743,-0.768 -0.743,-1.375l0 -0.118z"/>
    <path class="fil1" d="M55.07 9.763c-0.015,0.4 -0.166,0.703 -0.454,0.91 -0.288,0.206 -0.705,0.31 -1.248,0.31 -0.64,0 -1.127,-0.147 -1.463,-0.442 -0.335,-0.294 -0.503,-0.72 -0.503,-1.278 0,-0.559 0.171,-0.984 0.515,-1.277 0.343,-0.293 0.842,-0.439 1.498,-0.439 0.516,0 0.908,0.095 1.179,0.283 0.271,0.189 0.425,0.475 0.461,0.858l-0.992 0c-0.026,-0.155 -0.1,-0.273 -0.22,-0.354 -0.12,-0.079 -0.284,-0.119 -0.492,-0.119 -0.32,0 -0.558,0.084 -0.713,0.252 -0.155,0.168 -0.232,0.428 -0.232,0.777 0,0.353 0.074,0.618 0.223,0.794 0.149,0.175 0.372,0.263 0.671,0.263 0.239,0 0.421,-0.044 0.545,-0.131 0.126,-0.087 0.201,-0.223 0.228,-0.407l0.997 0zm1.72 -0.159l1.25 0 -0.594 -1.283 -0.656 1.283zm-1.694 1.322l1.81 -3.338 1.176 0 1.704 3.338 -1.12 0 -0.308 -0.677 -1.893 0 -0.323 0.677 -1.046 0zm5.888 -2.693l0 0.779 0.615 0c0.291,0 0.49,-0.03 0.599,-0.09 0.109,-0.059 0.162,-0.162 0.162,-0.309 0,-0.141 -0.05,-0.24 -0.151,-0.296 -0.1,-0.056 -0.303,-0.084 -0.61,-0.084l-0.615 0zm-0.959 2.693l0 -3.338 1.897 0c0.278,0 0.49,0.011 0.634,0.033 0.145,0.022 0.271,0.058 0.38,0.108 0.141,0.066 0.251,0.16 0.327,0.28 0.077,0.121 0.116,0.259 0.116,0.414 0,0.231 -0.079,0.417 -0.237,0.557 -0.158,0.141 -0.395,0.237 -0.713,0.288 0.239,0.003 0.419,0.034 0.541,0.094 0.122,0.059 0.205,0.156 0.251,0.29 0.024,0.07 0.057,0.248 0.1,0.534 0.044,0.287 0.098,0.533 0.164,0.74l-1.023 0c-0.032,-0.059 -0.06,-0.173 -0.085,-0.341 -0.003,-0.022 -0.005,-0.038 -0.007,-0.051l-0.066 -0.443c-0.028,-0.181 -0.082,-0.299 -0.162,-0.355 -0.079,-0.056 -0.27,-0.084 -0.573,-0.084l-0.585 0 0 1.274 -0.959 0zm4.983 0l0 -2.636 -1.318 0 0 -0.702 3.621 0 0 0.702 -1.318 0 0 2.636 -0.985 0zm3.517 -1.637c0,0.351 0.09,0.614 0.267,0.79 0.179,0.175 0.446,0.263 0.801,0.263 0.361,0 0.632,-0.086 0.814,-0.259 0.181,-0.173 0.272,-0.431 0.272,-0.775 0,-0.37 -0.093,-0.651 -0.281,-0.845 -0.186,-0.194 -0.458,-0.292 -0.815,-0.292 -0.334,0 -0.594,0.099 -0.779,0.295 -0.186,0.196 -0.279,0.47 -0.279,0.823zm1.018 1.698c-0.652,0 -1.154,-0.15 -1.504,-0.45 -0.352,-0.301 -0.527,-0.729 -0.527,-1.288 0,-0.54 0.186,-0.961 0.56,-1.263 0.373,-0.302 0.894,-0.453 1.564,-0.453 0.663,0 1.172,0.151 1.528,0.453 0.356,0.302 0.534,0.733 0.534,1.295 0,0.554 -0.184,0.976 -0.55,1.268 -0.367,0.292 -0.902,0.438 -1.605,0.438zm2.735 -0.061l0 -3.338 1.29 0 1.591 2.401 0 -2.401 0.884 0 0 3.338 -1.294 0 -1.589 -2.391 0 2.391 -0.882 0zm5.697 -1.322l1.249 0 -0.594 -1.283 -0.655 1.283zm-1.695 1.322l1.811 -3.338 1.176 0 1.704 3.338 -1.12 0 -0.308 -0.677 -1.893 0 -0.323 0.677 -1.047 0zm7.591 -0.686l0 -0.551 -0.872 0 0 -0.625 1.853 0 0 1.69c-0.253,0.076 -0.521,0.132 -0.803,0.171 -0.282,0.038 -0.578,0.058 -0.887,0.058 -0.739,0 -1.294,-0.143 -1.665,-0.427 -0.371,-0.284 -0.556,-0.708 -0.556,-1.271 0,-0.558 0.184,-0.987 0.55,-1.287 0.366,-0.301 0.889,-0.451 1.57,-0.451 0.574,0 1.011,0.092 1.309,0.277 0.297,0.184 0.458,0.46 0.482,0.83l-1.064 0c-0.006,-0.152 -0.077,-0.273 -0.211,-0.362 -0.134,-0.089 -0.316,-0.134 -0.545,-0.134 -0.343,0 -0.606,0.094 -0.791,0.28 -0.185,0.186 -0.277,0.451 -0.277,0.795 0,0.367 0.098,0.643 0.294,0.827 0.195,0.185 0.487,0.278 0.875,0.278 0.117,0 0.236,-0.009 0.358,-0.025 0.123,-0.017 0.249,-0.041 0.38,-0.073zm1.612 0.686l0 -3.338 2.959 0 0 0.711 -2 0 0 0.579 1.902 0 0 0.686 -1.902 0 0 0.644 2.054 0 0 0.718 -3.013 0zm3.569 0l0 -3.338 1.507 0 1.071 2.498 1.109 -2.498 1.354 0 0 3.338 -0.835 0 0 -2.67 -1.164 2.67 -1.042 0 -1.151 -2.67 0 2.67 -0.849 0z"/>
   </g>
  </g>
 </g>
</svg>
